<svg width="64" height="64" viewBox="0 0 64 64" xmlns="http://www.w3.org/2000/svg">
  <!-- Candy Cane Left -->
  <rect x="18" y="20" width="8" height="36" rx="4" fill="#fff"/>
  <rect x="18" y="20" width="8" height="6" fill="#e63946"/>
  <rect x="18" y="32" width="8" height="6" fill="#e63946"/>
  <rect x="18" y="44" width="8" height="6" fill="#e63946"/>
  <!-- Candy Cane Right -->
  <rect x="38" y="20" width="8" height="36" rx="4" fill="#fff"/>
  <rect x="38" y="20" width="8" height="6" fill="#e63946"/>
  <rect x="38" y="32" width="8" height="6" fill="#e63946"/>
  <rect x="38" y="44" width="8" height="6" fill="#e63946"/>
  <!-- Arch connecting them -->
  <path d="M22 20 Q22 8 32 8 Q42 8 42 20" stroke="#fff" stroke-width="8" fill="none" stroke-linecap="round"/>
  <path d="M22 20 Q22 12 28 10" stroke="#e63946" stroke-width="8" fill="none" stroke-linecap="round"/>
  <path d="M36 10 Q42 12 42 20" stroke="#e63946" stroke-width="8" fill="none" stroke-linecap="round"/>
  <!-- Holly decoration -->
  <circle cx="32" cy="16" r="3" fill="#2a9d8f"/>
  <circle cx="28" cy="18" r="2" fill="#2a9d8f"/>
  <circle cx="36" cy="18" r="2" fill="#2a9d8f"/>
  <circle cx="32" cy="14" r="2" fill="#e63946"/>
</svg>
