<svg width="64" height="64" viewBox="0 0 64 64" xmlns="http://www.w3.org/2000/svg">
  <!-- Globe/Map Base -->
  <circle cx="32" cy="32" r="26" fill="#1d3557" stroke="#ffd166" stroke-width="2"/>
  <!-- Snow caps -->
  <ellipse cx="32" cy="12" rx="18" ry="6" fill="#f1faee"/>
  <ellipse cx="32" cy="52" rx="14" ry="5" fill="#f1faee"/>
  <!-- Land masses -->
  <ellipse cx="24" cy="28" rx="10" ry="6" fill="#2a9d8f"/>
  <ellipse cx="40" cy="36" rx="8" ry="5" fill="#2a9d8f"/>
  <!-- Route line -->
  <path d="M20 20 Q32 40 44 20 Q56 30 44 44" stroke="#e63946" stroke-width="2" fill="none" stroke-dasharray="4,2"/>
  <!-- Location markers -->
  <circle cx="20" cy="20" r="3" fill="#e63946"/>
  <circle cx="44" cy="20" r="3" fill="#e63946"/>
  <circle cx="44" cy="44" r="3" fill="#e63946"/>
  <!-- North Pole Star -->
  <polygon points="32,4 33,7 36,7 34,9 35,12 32,10 29,12 30,9 28,7 31,7" fill="#ffd166"/>
</svg>
