<svg width="64" height="64" viewBox="0 0 64 64" xmlns="http://www.w3.org/2000/svg">
  <!-- Sleigh Body -->
  <path d="M12 40 Q8 40 8 44 L8 48 Q8 52 12 52 L52 52 Q56 52 56 48 L56 44 Q56 40 52 40 Z" fill="#c41e3a"/>
  <!-- Sleigh Runner -->
  <path d="M6 54 Q4 54 4 56 L4 58 Q4 60 6 60 L58 60 Q60 60 60 58 L60 56 Q60 54 58 54 Z" fill="#8b0000"/>
  <!-- Gift Box 1 -->
  <rect x="16" y="28" width="12" height="12" rx="2" fill="#2a9d8f"/>
  <rect x="20" y="28" width="4" height="12" fill="#ffd166"/>
  <rect x="16" y="32" width="12" height="4" fill="#ffd166"/>
  <!-- Gift Box 2 -->
  <rect x="32" y="24" width="14" height="16" rx="2" fill="#e63946"/>
  <rect x="37" y="24" width="4" height="16" fill="#ffd166"/>
  <rect x="32" y="30" width="14" height="4" fill="#ffd166"/>
  <!-- Star -->
  <polygon points="50,12 52,18 58,18 53,22 55,28 50,24 45,28 47,22 42,18 48,18" fill="#ffd166"/>
</svg>
